<svg width="40" height="40" viewBox="0 0 40 40" fill="none" xmlns="http://www.w3.org/2000/svg">
<g clip-path="url(#clip0)">
<path d="M35.8333 33.3332H4.16667C1.86833 33.3332 0 31.4632 0 29.1665V26.9365C0 25.9165 0.65 25.0165 1.61667 24.6932C3.64167 24.0198 5 22.1332 5 19.9998C5 17.8665 3.64167 15.9798 1.61667 15.3065C0.65 14.9832 0 14.0832 0 13.0632V10.8332C0 8.5365 1.86833 6.6665 4.16667 6.6665H35.8333C38.1317 6.6665 40 8.5365 40 10.8332V13.0632C40 14.0815 39.35 14.9832 38.3833 15.3048C36.3583 15.9815 35 17.8682 35 19.9998C35 22.1315 36.3583 24.0182 38.3817 24.6932C39.35 25.0165 40 25.9182 40 26.9382V29.1665C40 31.4632 38.1317 33.3332 35.8333 33.3332ZM4.16667 8.33317C2.78833 8.33317 1.66667 9.45484 1.66667 10.8332V13.0632C1.66667 13.3648 1.85833 13.6298 2.14333 13.7248C4.84833 14.6265 6.66667 17.1482 6.66667 19.9998C6.66667 22.8515 4.84833 25.3732 2.14333 26.2748C1.85833 26.3698 1.66667 26.6348 1.66667 26.9365V29.1665C1.66667 30.5448 2.78833 31.6665 4.16667 31.6665H35.8333C37.2117 31.6665 38.3333 30.5448 38.3333 29.1665V26.9382C38.3333 26.6365 38.1417 26.3715 37.8567 26.2765C35.1517 25.3732 33.3333 22.8515 33.3333 19.9998C33.3333 17.1482 35.1517 14.6265 37.8567 13.7248C38.1417 13.6298 38.3333 13.3648 38.3333 13.0632V10.8332C38.3333 9.45484 37.2117 8.33317 35.8333 8.33317H4.16667Z" fill="white"/>
<path d="M24.6351 28.3332C24.4701 28.3332 24.3084 28.2849 24.1667 28.1899L20.0001 25.3532L15.8334 28.1882C15.5467 28.3815 15.1734 28.3799 14.8867 28.1815C14.6034 27.9832 14.4717 27.6299 14.5584 27.2949L15.8517 22.1865L11.9584 18.8632C11.7001 18.6415 11.6017 18.2849 11.7117 17.9632C11.8217 17.6415 12.1134 17.4165 12.4534 17.3982L17.4184 17.1165L19.2167 12.2132C19.4584 11.5565 20.5417 11.5565 20.7817 12.2132L22.5801 17.1165L27.5451 17.3982C27.8851 17.4165 28.1784 17.6415 28.2867 17.9632C28.3951 18.2849 28.2984 18.6415 28.0401 18.8632L24.1467 22.1865L25.4401 27.2949C25.5267 27.6299 25.3951 27.9832 25.1117 28.1815C24.9701 28.2832 24.8034 28.3332 24.6351 28.3332ZM20.0001 23.5115C20.1651 23.5115 20.3267 23.5599 20.4684 23.6549L23.2867 25.5732L22.4067 22.0915C22.3284 21.7849 22.4317 21.4599 22.6717 21.2532L25.3801 18.9415L21.9401 18.7465C21.6084 18.7282 21.3201 18.5132 21.2051 18.2015L20.0001 14.9199L18.7951 18.2049C18.6801 18.5165 18.3917 18.7299 18.0601 18.7499L14.6201 18.9449L17.3284 21.2565C17.5701 21.4632 17.6717 21.7882 17.5934 22.0949L16.7134 25.5765L19.5317 23.6582C19.6734 23.5599 19.8351 23.5115 20.0001 23.5115Z" fill="white"/>
</g>
<defs>
<clipPath id="clip0">
<rect width="40" height="40" fill="white"/>
</clipPath>
</defs>
</svg>
