<svg width="72" height="72" viewBox="0 0 72 72" fill="none" xmlns="http://www.w3.org/2000/svg">
<g clip-path="url(#clip0)">
<path d="M70.5937 36.958H67.0467C66.6133 36.958 66.2041 37.158 65.9376 37.4996L63.7986 40.2424C63.3207 40.8549 63.43 41.7382 64.0425 42.2161C64.2996 42.4166 64.6039 42.5132 64.9066 42.5132C65.3252 42.5132 65.7388 42.3276 66.0162 41.9722L67.7334 39.7711H70.5937C71.3704 39.7711 71.9999 39.1415 71.9999 38.3648C71.9999 37.5881 71.3704 36.958 70.5937 36.958Z" fill="black"/>
<path d="M59.1371 48.5045C58.5246 48.0271 57.6413 48.1359 57.1634 48.7484L55.1858 51.284H49.0291L44.1116 34.4354C45.5453 33.8899 46.5665 32.5018 46.5665 30.8791C46.5665 28.7818 44.8603 27.0751 42.7625 27.0751H41.9632L40.9443 23.5831C40.7262 22.8377 39.9451 22.4098 39.2002 22.6273C38.4548 22.8448 38.0268 23.6254 38.2444 24.3708L39.0337 27.0751H38.2839L33.0594 22.089C33.1703 22.0192 33.2808 21.9472 33.3884 21.8709C34.8754 20.8184 35.8631 19.2501 36.1696 17.4544C36.4767 15.6592 36.0658 13.852 35.0133 12.3655C33.9608 10.8785 32.3925 9.8914 30.5968 9.58433C26.8906 8.95042 23.3601 11.4509 22.7267 15.1571C22.3444 17.3929 23.1041 19.5643 24.5801 21.0749C24.1885 21.259 23.8204 21.4732 23.4782 21.7149C22.819 20.3372 21.5441 19.2858 19.9549 19.0007C18.6915 18.7744 17.4165 19.0578 16.364 19.8C15.2884 20.5586 14.5749 21.7001 14.3562 23.014C14.2156 23.8572 14.2964 24.6889 14.5557 25.4469C14.487 25.4799 14.4205 25.5167 14.3579 25.5606C14.0514 25.7749 13.8426 26.1028 13.7784 26.472L11.8025 37.8164C11.4471 39.8599 12.7627 41.8105 14.7353 42.1637L17.1034 42.5884C17.3171 42.6268 17.5291 42.6455 17.7389 42.6455C17.8966 42.6455 18.0515 42.6318 18.2048 42.6114L17.7664 49.3417L14.3535 56.3811C14.03 57.0497 13.8657 57.7643 13.8657 58.5043C13.8657 59.2255 14.0305 59.9259 14.3271 60.5609H12.6946C12.4265 60.5609 12.1639 60.6378 11.9382 60.7817L0.650254 67.98C-0.00453153 68.3974 -0.196792 69.267 0.220688 69.9218C0.488755 70.342 0.943589 70.5722 1.40776 70.5722C1.66649 70.5722 1.92796 70.5008 2.16252 70.3514L13.1044 63.3734H18.4591C18.5508 63.3789 18.642 63.3816 18.7332 63.3816C18.809 63.3816 18.8843 63.3772 18.9595 63.3734H33.9537C34.314 63.3734 34.6606 63.235 34.9221 62.9867L44.2786 54.0971H47.9656H47.9739H47.9788H55.8725C56.3054 54.0971 56.7146 53.8971 56.981 53.5555L59.381 50.4787C59.8589 49.8657 59.7496 48.9824 59.1371 48.5045ZM23.955 43.3316C23.4106 43.2382 22.808 43.1981 22.3131 42.9377C21.438 42.4768 20.9942 41.5002 21.1562 40.5383C21.2013 40.2719 21.2474 40.0049 21.293 39.7385C25.3722 39.549 28.2183 38.402 30.1249 37.1781L29.7953 39.1073C29.6899 39.7253 30.0063 40.3389 30.571 40.6114L35.5769 43.0234L41.3936 50.3661C42.1 51.2582 41.9495 52.5585 41.0574 53.2649C40.1659 53.9713 38.8657 53.8202 38.1592 52.9287L33.1319 46.583C33 46.416 32.8314 46.2814 32.6402 46.1891L28.4034 44.1473C28.2847 44.0902 28.1589 44.0501 28.0298 44.0281L23.955 43.3316ZM43.598 48.6199L37.5797 41.0223C37.4808 40.8981 37.3627 40.7926 37.2309 40.7091C37.1847 40.68 37.1359 40.6526 37.0853 40.6284L32.7463 38.5371L33.4049 34.6831H41.2541L46.099 51.284H44.6368C44.5681 50.3436 44.227 49.4131 43.598 48.6199ZM37.7209 29.8876H40.8998C40.9025 29.8876 40.9053 29.8882 40.908 29.8882C40.9097 29.8882 40.9113 29.8876 40.913 29.8876H42.7625C43.3096 29.8876 43.754 30.3326 43.754 30.8791C43.754 31.4257 43.3096 31.8706 42.7625 31.8706H42.3351C42.3335 31.8706 42.3318 31.8706 42.3307 31.8706H32.7408L29.8975 29.4201C29.3086 28.9137 28.4209 28.9796 27.9139 29.5679C27.4069 30.1562 27.4728 31.0439 28.0611 31.5509L30.2853 33.4675C29.1724 34.6233 26.6329 36.5272 21.7797 36.8919L22.2966 33.868L23.2733 28.1562C23.2739 28.1523 23.2739 28.1485 23.2744 28.1446L23.5639 26.4505C23.8446 24.8097 25.2442 23.0865 28.3254 23.0865C28.3962 23.0865 28.4676 23.0876 28.5407 23.0893C28.5522 23.0898 28.5643 23.0898 28.5759 23.0898C29.5405 23.0898 30.4073 23.4227 31.0154 24.0264C31.0335 24.0445 31.0522 24.0621 31.0709 24.0791L36.7497 29.4987C37.0117 29.7486 37.3594 29.8876 37.7209 29.8876ZM25.4991 15.6307C25.8326 13.6806 27.5305 12.2991 29.446 12.2991C29.6695 12.2991 29.8959 12.3177 30.1233 12.3567C31.178 12.5369 32.0992 13.117 32.7177 13.9904C33.3362 14.8638 33.5779 15.9262 33.3972 16.9809C33.0643 18.9309 31.3658 20.313 29.4504 20.3125C29.2268 20.3125 29.0005 20.2938 28.7731 20.2548C26.5956 19.8829 25.1267 17.8081 25.4991 15.6307ZM17.1303 23.4765C17.2248 22.9096 17.528 22.4202 17.9845 22.0983C18.3207 21.8616 18.7112 21.738 19.1111 21.738C19.2265 21.738 19.3424 21.7484 19.4583 21.7693C20.5712 21.9687 21.3194 23.0722 21.1266 24.2286C21.0321 24.7955 20.7283 25.2849 20.2718 25.6068C19.839 25.9122 19.316 26.0287 18.7986 25.9364C17.6857 25.7364 16.9369 24.6329 17.1303 23.4765ZM17.6 39.8204L15.2319 39.3952C14.7776 39.3139 14.482 38.8217 14.5732 38.2982L16.3063 28.3468L20.2652 29.057L19.5978 32.9627L18.5343 39.1809C18.3948 39.6127 17.9938 39.8907 17.6 39.8204ZM17.8411 60.3631C17.1237 60.0154 16.6782 59.303 16.6782 58.5037C16.6782 58.1917 16.748 57.8896 16.8848 57.6072L20.4169 50.3211C20.4965 50.1579 20.5432 49.9805 20.5547 49.7992L20.8453 45.3426C21.9055 45.9502 23.1695 46.0502 24.3549 46.2534C24.5779 46.2913 24.801 46.3298 25.024 46.3677L24.7076 50.9281L20.5976 59.4068C20.2663 60.0896 19.605 60.506 18.8974 60.5609H18.5783C18.3289 60.5411 18.0795 60.4785 17.8411 60.3631ZM33.3917 60.5609H23.1634L27.3569 51.9103C27.386 51.8504 27.4102 51.7894 27.4305 51.7268C27.4646 51.6208 27.4866 51.5087 27.4948 51.3928L27.8008 46.979L31.128 48.5825L35.9548 54.675C36.5096 55.3753 37.2199 55.8813 37.9977 56.1845L33.3917 60.5609Z" fill="black"/>
<path d="M54.6112 19.7974H61.8062C64.7834 19.7974 67.2059 17.3749 67.2059 14.397C67.2059 11.4197 64.7834 8.99725 61.8062 8.99725C61.0871 8.99725 60.3796 9.14117 59.7242 9.41473C58.5212 7.85028 56.6431 6.89722 54.6112 6.89722C51.0544 6.89722 48.1611 9.79047 48.1611 13.3473C48.1611 15.0699 48.8318 16.6899 50.0502 17.9083C51.2686 19.1266 52.888 19.7974 54.6112 19.7974ZM54.6112 9.70972C56.0603 9.70972 57.3704 10.5688 57.9489 11.8993C58.1257 12.3063 58.4844 12.6063 58.9167 12.7079C59.3485 12.809 59.8033 12.7007 60.1434 12.4151C60.6147 12.019 61.1893 11.8098 61.8062 11.8098C63.2327 11.8098 64.3934 12.9705 64.3934 14.397C64.3934 15.8242 63.2327 16.9849 61.8062 16.9849H54.6112C53.6395 16.9849 52.726 16.6064 52.0388 15.9192C51.3516 15.2325 50.9736 14.319 50.9736 13.3473C50.9736 11.3412 52.6057 9.70972 54.6112 9.70972Z" fill="black"/>
<path d="M8.50177 16.2509C11.3335 16.2509 13.6373 13.947 13.6373 11.1153C13.6373 8.28357 11.3335 5.97974 8.50177 5.97974C7.13013 5.97974 5.84033 6.51367 4.87079 7.48376C3.9007 8.45386 3.36621 9.74365 3.36621 11.1153C3.36621 13.947 5.67059 16.2509 8.50177 16.2509ZM6.85931 9.47284C7.29822 9.03394 7.88159 8.79224 8.50177 8.79224C9.78277 8.79224 10.8248 9.83429 10.8248 11.1153C10.8248 12.3963 9.78277 13.4384 8.50177 13.4384C7.22131 13.4384 6.17871 12.3963 6.17871 11.1153C6.17871 10.4946 6.42041 9.91119 6.85931 9.47284Z" fill="black"/>
<path d="M0.703072 8.26747L1.3628 8.64814C1.58418 8.77613 1.82642 8.83711 2.06483 8.83711C2.55097 8.83711 3.02339 8.58497 3.28376 8.13343C3.67213 7.46107 3.44196 6.60084 2.76905 6.21247L2.10932 5.83179C1.43696 5.44343 0.57673 5.67359 0.188363 6.3465C-0.199454 7.01887 0.0307091 7.8791 0.703072 8.26747Z" fill="black"/>
<path d="M16.3005 14.0259L15.6408 13.6453C14.9685 13.2569 14.1082 13.4871 13.7199 14.16C13.3315 14.8323 13.5622 15.6926 14.2346 16.0809L14.8943 16.4616C15.1157 16.5896 15.3574 16.6506 15.5963 16.6506C16.0819 16.6506 16.5549 16.3984 16.8153 15.9469C17.2036 15.2745 16.9729 14.4143 16.3005 14.0259Z" fill="black"/>
<path d="M1.40785 16.6506C1.64625 16.6506 1.8885 16.5896 2.10987 16.4616L2.76905 16.0809C3.44196 15.6926 3.67213 14.8329 3.28376 14.16C2.89539 13.4871 2.03571 13.2569 1.3628 13.6453L0.703072 14.0259C0.0307091 14.4143 -0.199454 15.2745 0.188363 15.9469C0.449288 16.3984 0.9217 16.6506 1.40785 16.6506Z" fill="black"/>
<path d="M14.9393 8.83747C15.1777 8.83747 15.4194 8.7765 15.6408 8.64906L16.3005 8.26783C16.9735 7.87946 17.2036 7.01978 16.8153 6.34687C16.4269 5.67451 15.5667 5.4438 14.8943 5.83216L14.2346 6.21284C13.5622 6.6012 13.3315 7.46143 13.7199 8.13435C13.9808 8.58534 14.4532 8.83747 14.9393 8.83747Z" fill="black"/>
<path d="M8.50195 5.15973C9.27869 5.15973 9.9082 4.53021 9.9082 3.75348V2.95312C9.9082 2.17639 9.27869 1.54688 8.50195 1.54688C7.72522 1.54688 7.0957 2.17639 7.0957 2.95312V3.75348C7.0957 4.53021 7.72522 5.15973 8.50195 5.15973Z" fill="black"/>
<path d="M7.0957 18.6082V19.4085C7.0957 20.1852 7.72522 20.8148 8.50195 20.8148C9.27869 20.8148 9.9082 20.1852 9.9082 19.4085V18.6082C9.9082 17.8314 9.27869 17.2019 8.50195 17.2019C7.72522 17.2019 7.0957 17.832 7.0957 18.6082Z" fill="black"/>
<path d="M62.7538 44.6987C62.527 44.1461 61.9502 43.7912 61.3547 43.8346C60.7702 43.8769 60.2654 44.2878 60.1039 44.8503C59.9419 45.4145 60.1594 46.0374 60.6356 46.3796C61.1053 46.7163 61.7546 46.7257 62.2347 46.406C62.7868 46.0396 63.0087 45.3101 62.7538 44.6987Z" fill="black"/>
</g>
<defs>
<clipPath id="clip0">
<rect width="72" height="72" fill="white"/>
</clipPath>
</defs>
</svg>
