<svg width="32" height="32" viewBox="0 0 32 32" fill="none" xmlns="http://www.w3.org/2000/svg">
<path d="M15.9998 1.00006C13.0331 1.00005 10.133 1.87978 7.66623 3.528C5.19949 5.17622 3.27689 7.5189 2.14157 10.2598C1.00625 13.0007 0.709204 16.0167 1.28799 18.9264C1.86677 21.8361 3.29539 24.5089 5.39318 26.6067C8.20624 29.4197 12.0216 31.0001 15.9998 31.0001C19.9781 31.0001 23.7934 29.4197 26.6064 26.6067C29.4195 23.7936 30.9998 19.9783 30.9998 16.0001C30.9998 12.0218 29.4195 8.20648 26.6064 5.39343C25.2168 3.99619 23.5638 2.88846 21.7432 2.13433C19.9226 1.38021 17.9704 0.994678 15.9998 1.00006ZM7.28969 26.9617C7.63826 25.8243 8.2702 24.7943 9.12614 23.9682C9.98208 23.1421 11.0339 22.5472 12.1829 22.2392C13.3319 21.9312 14.5404 21.9204 15.6947 22.2076C16.8491 22.4948 17.9115 23.0708 18.7821 23.8813C18.9068 23.9975 19.0267 24.1176 19.1418 24.2416C20.2319 25.4127 20.8877 26.9221 20.9998 28.5182L21.0392 29.0696C18.7617 29.9427 16.296 30.2075 13.8851 29.8379C11.4741 29.4683 9.20102 28.477 7.28969 26.9617ZM19.9998 16.0001C19.9998 15.6868 19.9754 15.374 19.9267 15.0646C20.3201 14.6662 20.789 14.3503 21.3059 14.1353C21.8228 13.9203 22.3775 13.8106 22.9373 13.8126C23.7183 13.8127 24.4843 14.028 25.1509 14.4349C25.8176 14.8418 26.3592 15.4246 26.7164 16.1192C27.0735 16.8138 27.2323 17.5934 27.1754 18.3723C27.1185 19.1513 26.848 19.8995 26.3937 20.5348C25.9393 21.1701 25.3187 21.6679 24.6 21.9736C23.8812 22.2792 23.0922 22.3809 22.3194 22.2675C21.5467 22.154 20.8201 21.8299 20.2195 21.3305C19.619 20.8312 19.1676 20.176 18.9151 19.4369C19.6223 18.4305 20.0012 17.2301 19.9998 16.0001ZM19.5802 23.2609C19.5417 23.2234 19.503 23.1864 19.4636 23.1497C18.6325 22.3747 17.6459 21.7854 16.5694 21.4212C17.1665 21.1367 17.7126 20.7558 18.1859 20.2938C18.6925 21.3728 19.5508 22.2475 20.6199 22.7744C20.2611 22.9089 19.9134 23.0716 19.5802 23.2609ZM13.9998 21.0001C13.0109 21.0001 12.0442 20.7068 11.222 20.1574C10.3997 19.608 9.75885 18.8271 9.38041 17.9135C9.00197 16.9998 8.90296 15.9945 9.09588 15.0246C9.28881 14.0547 9.76501 13.1638 10.4643 12.4645C11.1635 11.7653 12.0545 11.2891 13.0244 11.0961C13.9943 10.9032 14.9996 11.0022 15.9132 11.3807C16.8269 11.7591 17.6078 12.4 18.1572 13.2222C18.7066 14.0444 18.9998 15.0111 18.9998 16.0001C18.9983 17.3257 18.471 18.5966 17.5337 19.5339C16.5963 20.4713 15.3254 20.9986 13.9998 21.0001ZM25.8993 25.8996C24.77 27.0319 23.4552 27.9625 22.0118 28.6512L21.9972 28.4469C21.8836 26.8315 21.2819 25.2887 20.2718 24.0229C21.3386 23.4687 22.5415 23.2309 23.7388 23.3374C24.9362 23.4438 26.0783 23.8902 27.0305 24.6239C26.6793 25.0714 26.3015 25.4973 25.8993 25.8996ZM27.6203 23.8144C26.9659 23.3137 26.2313 22.9274 25.4478 22.6722C26.4727 22.1143 27.2824 21.2308 27.7491 20.1613C28.2158 19.0918 28.3129 17.8973 28.025 16.7665C27.737 15.6358 27.0805 14.6331 26.1592 13.9171C25.2378 13.201 24.1042 12.8124 22.9373 12.8126C21.7396 12.8083 20.5772 13.218 19.6468 13.9723C19.3136 13.044 18.7567 12.2121 18.0254 11.5504C17.2941 10.8886 16.411 10.4173 15.4541 10.1782C14.4972 9.93907 13.4962 9.93954 12.5395 10.1795C11.5829 10.4195 10.7002 10.8917 9.96946 11.5541C9.23878 12.2166 8.68267 13.049 8.35036 13.9776C8.01805 14.9062 7.91978 15.9024 8.06425 16.8781C8.20873 17.8537 8.59149 18.7787 9.17866 19.5712C9.76583 20.3637 10.5393 20.9991 11.4306 21.4214C10.2948 21.8047 9.25962 22.4382 8.40133 23.275C7.54304 24.1118 6.88359 25.1306 6.47162 26.2563C6.34625 26.1396 6.22206 26.0212 6.10031 25.8995C3.48114 23.2727 2.01156 19.7137 2.01427 16.0042C2.01699 12.2948 3.49178 8.73797 6.11479 6.11497C8.7378 3.49197 12.2946 2.01719 16.0041 2.01449C19.7136 2.01179 23.2725 3.48138 25.8993 6.10056C28.1941 8.39652 29.6203 11.4182 29.9342 14.6491C30.2481 17.88 29.4302 21.1197 27.6203 23.8144Z" fill="black"/>
<path d="M24.0769 5.81297C21.7842 3.98159 18.9343 2.98908 16 3.00009C8.83181 3.00009 3 8.8319 3 16.0001C3.00115 19.04 4.06638 21.9836 6.01088 24.3203C6.05292 24.3707 6.10449 24.4124 6.16264 24.4429C6.22079 24.4734 6.28437 24.4921 6.34976 24.498C6.41516 24.504 6.48108 24.497 6.54376 24.4774C6.60644 24.4579 6.66466 24.4262 6.71509 24.3841C6.76553 24.3421 6.80718 24.2905 6.83768 24.2324C6.86819 24.1742 6.88694 24.1106 6.89287 24.0452C6.89879 23.9798 6.89178 23.9139 6.87224 23.8512C6.85269 23.7886 6.82099 23.7303 6.77894 23.6799C4.98417 21.5231 4.00101 18.806 4 16.0001C4 9.38328 9.38319 4.00009 16 4.00009C18.7084 3.98983 21.3389 4.90586 23.4551 6.59622C25.5344 8.24916 27.0098 10.5423 27.6522 13.1197C27.6676 13.1838 27.6955 13.2443 27.7343 13.2975C27.7731 13.3508 27.8221 13.3959 27.8784 13.4302C27.9347 13.4645 27.9972 13.4873 28.0624 13.4973C28.1275 13.5074 28.194 13.5044 28.258 13.4886C28.3221 13.4729 28.3823 13.4446 28.4354 13.4054C28.4884 13.3663 28.5332 13.317 28.5671 13.2605C28.601 13.204 28.6235 13.1413 28.6331 13.0761C28.6427 13.0109 28.6393 12.9444 28.6231 12.8805C27.9274 10.0882 26.3293 7.60384 24.0769 5.81297Z" fill="black"/>
</svg>
