<svg width="32" height="32" viewBox="0 0 32 32" fill="none" xmlns="http://www.w3.org/2000/svg">
<path d="M30.9999 7.5H22.2069L18.3534 3.6465C18.2599 3.5525 18.1329 3.5 17.9999 3.5H16.4999C16.3669 3.5 16.2399 3.5525 16.1463 3.6465L14.2929 5.5H13.4999C13.3668 5.5 13.2399 5.5525 13.1463 5.6465L7.29285 11.5H5.99985C5.86685 11.5 5.73985 11.5525 5.64635 11.6465L0.64635 16.6465C0.50335 16.7895 0.46035 17.0045 0.53785 17.1915C0.61485 17.3785 0.79785 17.5 0.999851 17.5H20.4999V17.586C20.4999 18.353 20.1889 19.104 19.6464 19.6465C19.1039 20.189 18.3529 20.5 17.5859 20.5H13.9999C11.5184 20.5 9.49985 22.5185 9.49985 25V26.592C8.91935 26.799 8.49985 27.349 8.49985 28C8.49985 28.827 9.17285 29.5 9.99985 29.5H10.4999V31C10.4999 31.2765 10.7234 31.5 10.9999 31.5H13.9999C14.2764 31.5 14.4999 31.2765 14.4999 31V29.5H15.4999V31C15.4999 31.2765 15.7234 31.5 15.9999 31.5H18.9999C19.2764 31.5 19.4999 31.2765 19.4999 31V29.5H20.4999V31C20.4999 31.2765 20.7234 31.5 20.9999 31.5H23.9999C24.2764 31.5 24.4999 31.2765 24.4999 31V29.5H25.4999V31C25.4999 31.2765 25.7234 31.5 25.9999 31.5H28.9999C29.2764 31.5 29.4999 31.2765 29.4999 31V29.408C30.0804 29.201 30.4999 28.651 30.4999 28V25V12.5H30.9999C31.2764 12.5 31.4999 12.2765 31.4999 12V8C31.4999 7.7235 31.2764 7.5 30.9999 7.5ZM13.7069 6.5H14.4999C14.6329 6.5 14.7599 6.4475 14.8534 6.3535L16.7069 4.5H17.7929L20.7929 7.5H19.9999C19.7234 7.5 19.4999 7.7235 19.4999 8V11.5H18.2069L16.3534 9.6465C16.2599 9.5525 16.1329 9.5 15.9999 9.5H13.9999C13.8668 9.5 13.7399 9.5525 13.6463 9.6465L11.7929 11.5H8.70685L13.7069 6.5ZM21.3854 18.5H22.4999V17.5H21.4999V16.5H22.4999V15.5H21.4999V14.5H22.4999C23.0514 14.5 23.4999 14.9485 23.4999 15.5V18.5C23.4999 19.0515 23.0514 19.5 22.4999 19.5H20.9944C21.1699 19.1865 21.3004 18.8495 21.3854 18.5ZM2.20685 16.5L6.20685 12.5H9.99985V13.293L8.64635 14.6465L9.35335 15.3535L9.99985 14.707L10.6463 15.3535C10.7399 15.4475 10.8668 15.5 10.9999 15.5H12.9999V14.5H11.2069L10.7069 14L10.8534 13.8535C10.9474 13.76 10.9999 13.633 10.9999 13.5V12.5H11.9999C12.1329 12.5 12.2599 12.4475 12.3534 12.3535L14.2069 10.5H15.7929L17.6464 12.3535C17.7399 12.4475 17.8669 12.5 17.9999 12.5H19.9999H20.4999V16.5H2.20685ZM11.9999 22.132V22.4395C11.9999 23.257 12.3183 24.0255 12.8963 24.6035C13.4743 25.1815 14.2429 25.5 15.0604 25.5H16.9394C17.4819 25.5 18.0124 25.72 18.3964 26.1035L18.7929 26.5H10.4999V25C10.4999 23.814 11.0943 22.7655 11.9999 22.132ZM13.4999 30.5H11.4999V29.5H13.4999V30.5ZM18.4999 30.5H16.4999V29.5H18.4999V30.5ZM23.4999 30.5H21.4999V29.5H23.4999V30.5ZM26.4999 30.5V29.5H28.4999V30.5H26.4999ZM29.4999 28C29.4999 28.276 29.2759 28.5 28.9999 28.5H9.99985C9.72385 28.5 9.49985 28.276 9.49985 28C9.49985 27.724 9.72385 27.5 9.99985 27.5H22.9999C23.1139 27.5 23.2234 27.4615 23.3124 27.3905L25.6754 25.5H29.4999V28ZM29.4999 22.5H27.9999C27.7239 22.5 27.4999 22.276 27.4999 22V20C27.4999 19.724 27.7239 19.5 27.9999 19.5H29.4999V22.5ZM29.4999 18.5H27.9999C27.1729 18.5 26.4999 19.173 26.4999 20V22C26.4999 22.827 27.1729 23.5 27.9999 23.5H29.4999V24.5H25.4999C25.3859 24.5 25.2764 24.5385 25.1874 24.6095L22.8244 26.5H20.2069L19.1034 25.3965C18.5254 24.8185 17.7569 24.5 16.9394 24.5H15.0604C14.5179 24.5 13.9874 24.28 13.6034 23.8965C13.2199 23.5125 12.9999 22.982 12.9999 22.4395V21.6475C13.3169 21.5525 13.6524 21.5 13.9999 21.5H17.5859C18.5434 21.5 19.4789 21.1355 20.1914 20.5H22.4999C23.6029 20.5 24.4999 19.603 24.4999 18.5V15.5C24.4999 14.397 23.6029 13.5 22.4999 13.5H21.4999V12.5H29.4999V18.5ZM30.4999 11.5H20.4999V8.5H30.4999V11.5Z" fill="black"/>
<path d="M5 7C6.103 7 7 6.103 7 5C7 3.897 6.103 3 5 3C3.897 3 3 3.897 3 5C3 6.103 3.897 7 5 7ZM5 4C5.5515 4 6 4.4485 6 5C6 5.5515 5.5515 6 5 6C4.4485 6 4 5.5515 4 5C4 4.4485 4.4485 4 5 4Z" fill="black"/>
<path d="M4.5 1H5.5V2H4.5V1Z" fill="black"/>
<path d="M4.5 8H5.5V9H4.5V8Z" fill="black"/>
<path d="M8 4.5H9V5.5H8V4.5Z" fill="black"/>
<path d="M1 4.5H2V5.5H1V4.5Z" fill="black"/>
<path d="M6.64526 7.35352L7.35237 6.64641L8.35223 7.64626L7.64512 8.35337L6.64526 7.35352Z" fill="black"/>
<path d="M1.64551 7.646L2.64536 6.64614L3.35247 7.35325L2.35262 8.3531L1.64551 7.646Z" fill="black"/>
<path d="M1.646 2.35352L2.3531 1.64641L3.35295 2.64626L2.64585 3.35336L1.646 2.35352Z" fill="black"/>
<path d="M7.14551 2.64673L8.14536 1.64688L8.85247 2.35399L7.85262 3.35384L7.14551 2.64673Z" fill="black"/>
</svg>
