<svg width="32" height="32" viewBox="0 0 32 32" fill="none" xmlns="http://www.w3.org/2000/svg">
<g clip-path="url(#clip0)">
<path d="M4.84096 4.99693C4.85935 5.03693 4.88289 5.07439 4.91082 5.10839C4.92175 5.12859 4.93408 5.14799 4.94761 5.16652L4.95295 5.17025C4.99014 5.20558 5.03241 5.23524 5.07827 5.25824C5.093 5.26938 5.10827 5.27971 5.12413 5.28917C5.14653 5.29557 5.16933 5.30057 5.19239 5.30411C5.23592 5.31924 5.28132 5.32837 5.32732 5.3313L5.33425 5.3329H9.60057C9.89508 5.3329 10.1339 5.09412 10.1339 4.79961C10.1339 4.5051 9.89508 4.26632 9.60057 4.26632H6.76187C13.2411 -0.835528 22.6294 0.281114 27.7313 6.76039C29.694 9.25298 30.8118 12.306 30.9226 15.4766C30.9324 15.7641 31.1683 15.992 31.4559 15.9918H31.4745C31.7687 15.9816 31.999 15.7351 31.9891 15.4409C31.6836 6.61267 24.2792 -0.296305 15.451 0.00926968C11.9469 0.130593 8.57972 1.39996 5.86761 3.62204V0.533294C5.86761 0.238784 5.62882 3.76976e-06 5.33432 3.76976e-06C5.03981 3.76976e-06 4.80103 0.238784 4.80103 0.533294V4.78735V4.79961C4.80383 4.82181 4.80829 4.84368 4.81436 4.86521C4.81736 4.91007 4.82629 4.9544 4.84096 4.99693Z" fill="black"/>
<path d="M4.17104 25.1137C3.99445 24.878 3.66021 24.8301 3.4245 25.0067C3.18878 25.1833 3.14085 25.5175 3.31751 25.7533C3.32057 25.7573 3.32371 25.7614 3.3269 25.7654C3.66414 26.2019 4.02338 26.6211 4.40308 27.0213C4.60613 27.2348 4.94391 27.2433 5.15742 27.0402C5.37094 26.8372 5.3794 26.4994 5.17635 26.2859C4.82125 25.9127 4.48568 25.5215 4.17104 25.1137Z" fill="black"/>
<path d="M7.5206 28.2918C7.0959 27.9987 6.68653 27.684 6.29403 27.349C6.07018 27.1575 5.73355 27.1838 5.54209 27.4076C5.35064 27.6315 5.37691 27.9681 5.60076 28.1596C6.02052 28.5187 6.45822 28.8564 6.91212 29.1712C7.15496 29.3393 7.488 29.2786 7.65606 29.0358C7.82411 28.7929 7.76345 28.4598 7.5206 28.2918Z" fill="black"/>
<path d="M0.756364 18.6772C1.04647 18.6364 1.24932 18.3693 1.21073 18.0789C1.13967 17.5689 1.09494 17.0555 1.07687 16.5409C1.07354 16.2532 0.837624 16.0226 0.549847 16.0259C0.541515 16.026 0.533182 16.0263 0.524916 16.0268C0.23074 16.0372 0.000625229 16.284 0.0108244 16.5782C0.0304895 17.1294 0.0783522 17.6792 0.154279 18.2255C0.190943 18.4888 0.415925 18.6848 0.681703 18.6852C0.706768 18.6844 0.731766 18.6817 0.756364 18.6772Z" fill="black"/>
<path d="M10.2335 29.7775C10.2296 29.7757 10.2256 29.7741 10.2216 29.7725C9.7472 29.5727 9.28337 29.3488 8.83188 29.1016C8.57357 28.9601 8.24946 29.0547 8.10794 29.313C7.96641 29.5713 8.06107 29.8955 8.31939 30.037C8.80321 30.302 9.30037 30.5419 9.80887 30.7559C10.079 30.8731 10.3932 30.7491 10.5104 30.4789C10.6277 30.2088 10.5037 29.8947 10.2335 29.7775Z" fill="black"/>
<path d="M3.29176 23.8444H3.29229C3.02118 23.4066 2.77307 22.955 2.54889 22.4914C2.4255 22.224 2.10865 22.1072 1.84128 22.2306C1.57383 22.354 1.45704 22.6707 1.58043 22.9382C1.58316 22.9441 1.58603 22.95 1.58903 22.9559C1.82921 23.4527 2.09499 23.9367 2.38523 24.4059C2.54462 24.6536 2.87459 24.7252 3.12231 24.5658C3.36389 24.4103 3.43888 24.0912 3.29176 23.8444Z" fill="black"/>
<path d="M1.95037 21.0687H1.9493C1.77479 20.5841 1.62546 20.0909 1.50187 19.5909C1.42615 19.3063 1.13404 19.1369 0.84946 19.2126C0.571683 19.2865 0.40243 19.5673 0.466758 19.8475C0.599414 20.3829 0.759601 20.9112 0.946719 21.4303C1.04658 21.7074 1.35215 21.8512 1.62933 21.7513C1.90651 21.6514 2.05023 21.3458 1.95037 21.0687Z" fill="black"/>
<path d="M29.6866 23.2259C29.4313 23.0791 29.1053 23.1669 28.9584 23.4222C28.9583 23.4224 28.9582 23.4226 28.9581 23.4227C28.7015 23.8691 28.4222 24.3022 28.1214 24.7202C27.9494 24.9594 28.0038 25.2927 28.243 25.4646C28.4822 25.6366 28.8155 25.5822 28.9875 25.3431C29.3094 24.8955 29.6085 24.4318 29.8834 23.9538C30.03 23.6985 29.942 23.3726 29.6866 23.2259Z" fill="black"/>
<path d="M30.8785 20.2613C30.5983 20.1708 30.2977 20.3245 30.2071 20.6048C30.0482 21.0939 29.8642 21.5745 29.6557 22.0446C29.5364 22.314 29.658 22.629 29.9274 22.7483C30.1968 22.8676 30.5118 22.746 30.6311 22.4766C30.8545 21.9716 31.0516 21.4555 31.2214 20.9301C31.3103 20.6508 31.1572 20.3521 30.8785 20.2613Z" fill="black"/>
<path d="M13.1735 30.6647C12.6679 30.568 12.1678 30.4452 11.675 30.2967C11.3953 30.2045 11.0937 30.3566 11.0016 30.6363C10.9094 30.916 11.0614 31.2175 11.3411 31.3097C11.3496 31.3125 11.3581 31.3151 11.3667 31.3174C11.8949 31.4772 12.431 31.609 12.973 31.7126C13.0063 31.7187 13.04 31.7218 13.0738 31.7217C13.3683 31.7211 13.6066 31.4819 13.6061 31.1874C13.6056 30.9321 13.4243 30.7129 13.1735 30.6647Z" fill="black"/>
<path d="M27.9082 25.8776C27.6873 25.6819 27.3496 25.7023 27.1539 25.9232H27.156C26.814 26.3081 26.4521 26.675 26.0718 27.0223C25.8544 27.2211 25.8394 27.5584 26.0382 27.7758C26.237 27.9932 26.5744 28.0082 26.7918 27.8094C27.1989 27.4369 27.5867 27.0439 27.9538 26.6319C28.1495 26.411 28.1291 26.0733 27.9082 25.8776Z" fill="black"/>
<path d="M31.4346 17.1158C31.1418 17.0847 30.8793 17.2967 30.8479 17.5894C30.7934 18.1014 30.7128 18.6103 30.6064 19.1141C30.5455 19.4021 30.7295 19.685 31.0175 19.746C31.054 19.7538 31.0912 19.7578 31.1284 19.7578C31.3802 19.7574 31.5973 19.5811 31.6495 19.3349C31.764 18.7954 31.8505 18.2503 31.9086 17.7019C31.9394 17.4091 31.7273 17.1468 31.4346 17.1158Z" fill="black"/>
<path d="M16.2428 30.9334V30.9312H15.9996C15.5639 30.9312 15.1266 30.912 14.7005 30.8779C14.4119 30.8489 14.1544 31.0594 14.1254 31.3481C14.1249 31.3532 14.1245 31.3582 14.1241 31.3632C14.0989 31.6567 14.3162 31.915 14.6097 31.9403C14.6098 31.9403 14.6098 31.9403 14.6099 31.9403C15.0653 31.9792 15.533 31.9994 15.9991 32H16.2626C16.5571 31.9945 16.7915 31.7513 16.786 31.4568C16.7806 31.1622 16.5374 30.9279 16.2428 30.9334Z" fill="black"/>
<path d="M22.2535 29.5629C22.2441 29.5669 22.2349 29.5711 22.2259 29.5756C21.758 29.7903 21.2794 29.9806 20.7918 30.1457C20.5128 30.2401 20.3631 30.5429 20.4575 30.8219C20.5519 31.1009 20.8546 31.2507 21.1337 31.1563C21.6567 30.9793 22.1701 30.775 22.6717 30.5441C22.9426 30.4285 23.0687 30.1153 22.9531 29.8444C22.8377 29.5734 22.5244 29.4474 22.2535 29.5629Z" fill="black"/>
<path d="M19.3065 30.5645C18.8043 30.6778 18.2967 30.765 17.7855 30.8258C17.4931 30.8606 17.2842 31.1259 17.319 31.4184C17.3508 31.6862 17.5777 31.8882 17.8474 31.8887C17.8688 31.8888 17.8901 31.8876 17.9114 31.885C18.4593 31.8198 19.0034 31.7263 19.5417 31.605C19.829 31.5401 20.0092 31.2545 19.9443 30.9672C19.8794 30.6799 19.5938 30.4995 19.3065 30.5645Z" fill="black"/>
<path d="M24.9075 27.9844C24.8984 27.9907 24.8895 27.9972 24.8809 28.0041V28.0046C24.4664 28.3105 24.0368 28.5953 23.5936 28.8579C23.3401 29.0081 23.2565 29.3353 23.4066 29.5888C23.5568 29.8422 23.8841 29.9259 24.1375 29.7757C24.612 29.4945 25.0717 29.1893 25.515 28.8611C25.7571 28.6933 25.8173 28.361 25.6496 28.119C25.4819 27.877 25.1495 27.8166 24.9075 27.9844Z" fill="black"/>
<path d="M15.9999 27.1982C22.185 27.1982 27.199 22.1842 27.199 15.9991C27.199 9.81404 22.185 4.80005 15.9999 4.80005C9.81477 4.80005 4.80078 9.81404 4.80078 15.9991C4.80785 22.1813 9.81771 27.1912 15.9999 27.1982ZM7.46723 15.4658H5.89403C6.17107 10.2983 10.299 6.1706 15.4666 5.89383V7.4665C15.4666 7.76101 15.7054 7.99979 15.9999 7.99979C16.2944 7.99979 16.5332 7.76101 16.5332 7.4665V5.89383C21.7003 6.17114 25.8277 10.2987 26.1047 15.4658H24.5325C24.238 15.4658 23.9992 15.7046 23.9992 15.9991C23.9992 16.2936 24.238 16.5324 24.5325 16.5324H26.1052C25.8281 21.6998 21.7005 25.8274 16.5332 26.1045V24.5318C16.5332 24.2373 16.2944 23.9985 15.9999 23.9985C15.7054 23.9985 15.4666 24.2373 15.4666 24.5318V26.1045C10.299 25.8277 6.17107 21.7 5.89403 16.5324H7.46723C7.76174 16.5324 8.00052 16.2936 8.00052 15.9991C8.00052 15.7046 7.76181 15.4658 7.46723 15.4658Z" fill="black"/>
<path d="M11.7337 16.5325H14.4983C14.7905 17.3641 15.7017 17.8014 16.5333 17.5092C17.365 17.2169 17.8023 16.3058 17.51 15.4741C17.3495 15.0172 16.9902 14.658 16.5333 14.4974V9.5997C16.5333 9.30519 16.2945 9.06641 16 9.06641C15.7055 9.06641 15.4667 9.30519 15.4667 9.5997V14.4974C15.0149 14.6586 14.6592 15.0141 14.4978 15.4659H11.7337C11.4392 15.4659 11.2004 15.7047 11.2004 15.9992C11.2004 16.2937 11.4392 16.5325 11.7337 16.5325ZM16 15.4659C16.2945 15.4659 16.5333 15.7047 16.5333 15.9992C16.5333 16.2937 16.2945 16.5325 16 16.5325C15.7055 16.5325 15.4667 16.2937 15.4667 15.9992C15.4667 15.7047 15.7055 15.4659 16 15.4659Z" fill="black"/>
</g>
<defs>
<clipPath id="clip0">
<rect width="32" height="32" fill="white"/>
</clipPath>
</defs>
</svg>
