<svg width="44" height="44" viewBox="0 0 44 44" fill="none" xmlns="http://www.w3.org/2000/svg">
<g clip-path="url(#clip0)">
<path d="M29.9643 34.2241C32.5013 34.2241 34.5579 36.2808 34.5579 38.8176C34.5579 41.3546 32.5012 43.4112 29.9643 43.4112C27.4274 43.4112 25.3708 41.3545 25.3708 38.8176C25.3707 36.2808 27.4274 34.2241 29.9643 34.2241ZM29.9643 41.3697C31.3738 41.3697 32.5163 40.2272 32.5163 38.8177C32.5163 37.4083 31.3738 36.2658 29.9643 36.2658C28.5549 36.2658 27.4124 37.4083 27.4124 38.8177C27.4123 40.2272 28.5549 41.3697 29.9643 41.3697Z" fill="white"/>
<path d="M10.5691 34.2241C13.1061 34.2241 15.1626 36.2808 15.1626 38.8176C15.1626 41.3546 13.106 43.4112 10.5691 43.4112C8.03219 43.4112 5.97556 41.3545 5.97556 38.8176C5.97556 36.2808 8.03209 34.2241 10.5691 34.2241ZM10.5691 41.3697C11.9785 41.3697 13.121 40.2272 13.121 38.8177C13.121 37.4083 11.9785 36.2658 10.5691 36.2658C9.15966 36.2658 8.01714 37.4083 8.01714 38.8177C8.01705 40.2272 9.15966 41.3697 10.5691 41.3697Z" fill="white"/>
<path d="M0.208057 7.42825C0.420639 7.19603 0.711468 7.05067 1.02467 7.01989L34.2514 6.56054L35.1701 3.75333C35.8173 1.87675 37.5746 0.609871 39.5596 0.588867H42.9792C43.543 0.588867 44 1.04587 44 1.60966C44 2.17345 43.543 2.63045 42.9792 2.63045H39.5596C38.4497 2.65497 37.4724 3.36764 37.1096 4.41687L30.6276 23.965L31.1379 25.1389C31.7072 26.6068 31.5362 28.259 30.6786 29.5793C29.8291 30.8761 28.4001 31.6764 26.8506 31.723H6.99615C6.43237 31.723 5.97536 31.266 5.97536 30.7022C5.97536 30.1384 6.43237 29.6814 6.99615 29.6814H26.8507C27.7257 29.6595 28.5312 29.1992 28.9944 28.4564C29.4523 27.7228 29.5464 26.8189 29.2495 26.0065L28.8412 25.0878L7.35352 22.842C4.99326 22.5821 3.0517 20.8654 2.50472 18.5547L0.0547791 8.29576C-0.0556145 8.00034 0.00300217 7.66808 0.208057 7.42825ZM4.49531 18.0954C4.82669 19.5829 6.08957 20.6801 7.60869 20.8005L28.8412 22.9952L33.5879 8.60213L2.30064 9.06148L4.49531 18.0954Z" fill="white"/>
</g>
<defs>
<clipPath id="clip0">
<rect width="44" height="44" fill="white" transform="matrix(-1 0 0 1 44 0)"/>
</clipPath>
</defs>
</svg>
