<svg width="56" height="38" viewBox="0 0 56 38" fill="none" xmlns="http://www.w3.org/2000/svg">
<path d="M55.812 35.9536L49.3843 25.0642C49.1731 24.7064 48.678 24.5696 48.2781 24.7586C47.8783 24.9477 47.7255 25.3909 47.9367 25.7487L54.1564 36.2857H32.3511C32.3253 36.172 22.8504 20.0805 22.8504 20.0805L24.2587 17.7279L25.7329 19.4583C25.9814 19.7499 26.3587 19.9254 26.7682 19.9397C27.1764 19.9548 27.569 19.8053 27.842 19.5318L31.3929 15.9755L38.295 23.2682C38.5527 23.5405 38.9292 23.6984 39.3278 23.7015C39.3317 23.7015 39.3357 23.7015 39.3396 23.7015C39.7339 23.7015 40.1085 23.5497 40.3687 23.2841C40.3715 23.2813 40.3742 23.2785 40.3768 23.2756L44.1394 19.316L45.6689 21.9072C45.8801 22.265 46.3754 22.4019 46.7752 22.2128C47.1749 22.0238 47.3278 21.5805 47.1166 21.2227L35.0085 0.709926C34.7715 0.308581 34.3093 0.0584987 33.8022 0.0571289H33.7981C33.2925 0.0571289 32.8304 0.30457 32.5916 0.703762L23.9956 15.0645L23.4165 16.0319C23.4165 16.032 23.4164 16.0321 23.4164 16.0322L21.9283 18.5181L17.504 11.0228C17.3262 10.7217 17.0218 10.5058 16.6666 10.4161C16.5481 10.3861 16.424 10.3702 16.2971 10.3699C16.2958 10.3699 16.2945 10.3699 16.2932 10.3699C16.2762 10.3699 16.2595 10.3709 16.2427 10.3715C16.2288 10.3719 16.2148 10.3719 16.201 10.3727C16.1884 10.3735 16.1761 10.375 16.1636 10.3761C16.145 10.3776 16.1264 10.3789 16.1081 10.3811C16.0916 10.3831 16.0753 10.386 16.059 10.3886C16.0453 10.3907 16.0314 10.3924 16.0179 10.3949C15.6241 10.467 15.2813 10.6914 15.0866 11.0166L12.0901 16.0228L7.0502 24.4426C7.04932 24.4441 7.04867 24.4456 7.0478 24.4471L0.163871 35.9475C-0.0654839 36.3307 -0.0534586 36.7822 0.196011 37.1553C0.44559 37.5284 0.884622 37.7511 1.37044 37.7511H54.6016C55.0858 37.7511 55.5241 37.5295 55.774 37.1583C56.0241 36.7872 56.0382 36.3369 55.812 35.9536ZM25.3563 15.8943L33.7967 1.7943L43.3156 17.9212L39.3399 22.1049L32.4428 14.8175C32.1866 14.5469 31.8125 14.389 31.4165 14.3844C31.4103 14.3843 31.4043 14.3843 31.3983 14.3843C31.0088 14.3843 30.6377 14.5327 30.3777 14.7931L26.8378 18.3384L25.1083 16.3085L25.3563 15.8943ZM1.81899 36.2855L8.01813 25.929L10.4081 27.7207C10.6659 27.9139 10.9777 28.0087 11.2877 28.0087C11.6636 28.0087 12.037 27.8693 12.3084 27.5971L15.0496 24.8474L16.8152 26.4152C17.1361 26.7002 17.6545 26.6983 17.973 26.4112C18.2914 26.1239 18.2894 25.6599 17.9685 25.3749L16.0019 23.6287C15.7365 23.3931 15.3711 23.2643 14.9962 23.2738C14.6224 23.284 14.2653 23.433 14.0164 23.6828L11.26 26.4477L8.80797 24.6095L16.2917 12.1069L25.9489 28.4679L23.6175 30.391L21.4848 28.497C21.1639 28.212 20.6455 28.2139 20.327 28.5012C20.0085 28.7883 20.0106 29.2523 20.3316 29.5373L22.6465 31.593C22.9136 31.8301 23.2618 31.9493 23.6106 31.9493C23.9427 31.9493 24.2752 31.8413 24.5383 31.6241L26.7405 29.8076L30.5642 36.2855H1.81899Z" fill="white"/>
</svg>
